<svg xmlns="http://www.w3.org/2000/svg" width="400" height="361.31" viewBox="0 0 400 361.31">
  <g id="Group_2050" data-name="Group 2050" transform="translate(-60 -79.345)">
    <g id="Group_2049" data-name="Group 2049">
      <g id="Group_2048" data-name="Group 2048">
        <path id="Path_5983" data-name="Path 5983" d="M87.5,359.345a12.5,12.5,0,1,0,12.5,12.5A12.514,12.514,0,0,0,87.5,359.345Z" fill="#e3a837"/>
        <path id="Path_5984" data-name="Path 5984" d="M256.81,262.75a5,5,0,1,1-7.07-7.07L410.684,94.735,71.834,216.352,227.26,282.59a5,5,0,0,1,2.639,2.64c6.492,15.232,59.754,140.208,66.238,155.425L417.754,101.806Z" fill="#e3a837"/>
        <path id="Path_5985" data-name="Path 5985" d="M435,264.345a25,25,0,1,0,25,25A25.028,25.028,0,0,0,435,264.345Z" fill="#e3a837"/>
        <path id="Path_5986" data-name="Path 5986" d="M186.338,276.021v50.131h50.131L221.488,291Z" fill="#e3a837"/>
        <path id="Path_5987" data-name="Path 5987" d="M132.5,114.345a17.5,17.5,0,1,0-17.5-17.5A17.52,17.52,0,0,0,132.5,114.345Z" fill="#e3a837"/>
        <circle id="Ellipse_61" data-name="Ellipse 61" cx="7.5" cy="7.5" r="7.5" transform="translate(60 99.345)" fill="#e3a837"/>
        <circle id="Ellipse_62" data-name="Ellipse 62" cx="7.5" cy="7.5" r="7.5" transform="translate(210 84.345)" fill="#e3a837"/>
        <circle id="Ellipse_63" data-name="Ellipse 63" cx="7.5" cy="7.5" r="7.5" transform="translate(425 184.345)" fill="#e3a837"/>
        <circle id="Ellipse_64" data-name="Ellipse 64" cx="7.5" cy="7.5" r="7.5" transform="translate(385 384.345)" fill="#e3a837"/>
        <circle id="Ellipse_65" data-name="Ellipse 65" cx="7.5" cy="7.5" r="7.5" transform="translate(205 419.345)" fill="#e3a837"/>
        <circle id="Ellipse_66" data-name="Ellipse 66" cx="7.5" cy="7.5" r="7.5" transform="translate(65 284.345)" fill="#e3a837"/>
      </g>
    </g>
  </g>
</svg>
