<svg xmlns="http://www.w3.org/2000/svg" width="430" height="425" viewBox="0 0 430 425">
  <g id="Group_2053" data-name="Group 2053" transform="translate(-45 -47.5)">
    <g id="Group_2052" data-name="Group 2052">
      <g id="Group_2051" data-name="Group 2051">
        <path id="Path_5988" data-name="Path 5988" d="M420,325.746V227.5H390v98.246l15,18.75Z" fill="#e3a837"/>
        <path id="Path_5989" data-name="Path 5989" d="M131.465,263.965,242.93,152.5H140v20a5,5,0,0,1-10,0v-20H120v65a5,5,0,0,1-10,0v-65H75v195H190a5,5,0,0,1,0,10H75v15H445v-220H365v115a5,5,0,0,1-5,5H135A5,5,0,0,1,131.465,263.965ZM135,182.5a5,5,0,1,1-5,5A5,5,0,0,1,135,182.5Zm245,0a5,5,0,0,1,5-5h40a5,5,0,0,1,5,5v145a5,5,0,0,1-1.1,3.123l-20,25a5,5,0,0,1-7.809,0l-20-25A5,5,0,0,1,380,327.5v-145Zm-175,165a5,5,0,1,1-5,5A5,5,0,0,1,205,347.5Z" fill="#e3a837"/>
        <path id="Path_5990" data-name="Path 5990" d="M355,262.5V54.571L147.072,262.5ZM331.465,98.965A5,5,0,0,1,340,102.5v140a5,5,0,0,1-5,5H195a5,5,0,0,1-3.535-8.535Z" fill="#e3a837"/>
        <rect id="Rectangle_23" data-name="Rectangle 23" width="30" height="15" transform="translate(390 187.5)" fill="#e3a837"/>
        <rect id="Rectangle_24" data-name="Rectangle 24" width="30" height="5" transform="translate(390 212.5)" fill="#e3a837"/>
        <path id="Path_5991" data-name="Path 5991" d="M230,227.5a5,5,0,0,1,10,0v10h10v-10a5,5,0,0,1,10,0v10h10v-10a5,5,0,0,1,10,0v10h10v-10a5,5,0,0,1,10,0v10h10v-10a5,5,0,0,1,10,0v10h10v-25H320a5,5,0,0,1,0-10h10v-10H320a5,5,0,0,1,0-10h10v-10H320a5,5,0,0,1,0-10h10v-10H320a5,5,0,0,1,0-10h10V114.571L207.072,237.5H230Z" fill="#e3a837"/>
        <path id="Path_5992" data-name="Path 5992" d="M330,442.5H190a15,15,0,0,0,0,30H330a15,15,0,0,0,0-30Z" fill="#e3a837"/>
        <path id="Path_5993" data-name="Path 5993" d="M440,77.5a15,15,0,1,0-15-15A15.017,15.017,0,0,0,440,77.5Z" fill="#e3a837"/>
        <path id="Path_5994" data-name="Path 5994" d="M454.334,122.5H365v20h85a5,5,0,0,1,5,5v230a5,5,0,0,1-5,5H70a5,5,0,0,1-5-5v-230a5,5,0,0,1,5-5H252.93l20-20H65.668A20.69,20.69,0,0,0,45,143.167V411.834A20.69,20.69,0,0,0,65.668,432.5H454.334A20.69,20.69,0,0,0,475,411.833V143.167A20.691,20.691,0,0,0,454.334,122.5ZM260,417.5a10,10,0,1,1,10-10A10,10,0,0,1,260,417.5Z" fill="#e3a837"/>
        <path id="Path_5995" data-name="Path 5995" d="M107.5,82.5A7.5,7.5,0,1,0,100,75,7.507,7.507,0,0,0,107.5,82.5Z" fill="#e3a837"/>
        <path id="Path_5996" data-name="Path 5996" d="M445,452.5H395a5,5,0,0,0,0,10h50a5,5,0,0,0,0-10Z" fill="#e3a837"/>
        <path id="Path_5997" data-name="Path 5997" d="M125,452.5H75a5,5,0,0,0,0,10h50a5,5,0,0,0,0-10Z" fill="#e3a837"/>
        <circle id="Ellipse_67" data-name="Ellipse 67" cx="7.5" cy="7.5" r="7.5" transform="translate(145 57.5)" fill="#e3a837"/>
        <circle id="Ellipse_68" data-name="Ellipse 68" cx="7.5" cy="7.5" r="7.5" transform="translate(240 67.5)" fill="#e3a837"/>
        <circle id="Ellipse_69" data-name="Ellipse 69" cx="7.5" cy="7.5" r="7.5" transform="translate(385 77.5)" fill="#e3a837"/>
        <circle id="Ellipse_70" data-name="Ellipse 70" cx="7.5" cy="7.5" r="7.5" transform="translate(55 87.5)" fill="#e3a837"/>
      </g>
    </g>
  </g>
</svg>
