<svg xmlns="http://www.w3.org/2000/svg" width="440.434" height="452.379" viewBox="0 0 440.434 452.379">
  <g id="Group_2047" data-name="Group 2047" transform="translate(-39.783 -33.809)">
    <g id="Group_2046" data-name="Group 2046">
      <g id="Group_2045" data-name="Group 2045">
        <path id="Path_5976" data-name="Path 5976" d="M110.645,343.188c5.705,3.336,12.16,2.355,14.822,1.728l173.4-221.385-26.2-20.127L99.775,324.719C101.676,333.865,105.324,340.076,110.645,343.188Z" fill="#e3a837"/>
        <path id="Path_5977" data-name="Path 5977" d="M384.523,138.9,297.291,71.883,278.822,95.524l87.233,67.015Z" fill="#e3a837"/>
        <path id="Path_5978" data-name="Path 5978" d="M99.783,207.938a10,10,0,1,0-10,10A10.011,10.011,0,0,0,99.783,207.938Z" fill="#e3a837"/>
        <path id="Path_5979" data-name="Path 5979" d="M306.8,129.624,133.285,351.152c-.123,3.328.094,12.172,5.428,16.7,3.818,3.244,9.926,3.857,18.166,1.82L277.373,215.222a5,5,0,1,1,7.885,6.151L164.521,376.139c-.221,2.012-.346,6.807,2.781,10.469,3.385,3.961,10.014,5.922,19.242,5.719L359.9,170.42Z" fill="#e3a837"/>
        <path id="Path_5980" data-name="Path 5980" d="M460.217,421.188H106.652l61.609-21.875a22.05,22.05,0,0,1-13.725-18.973c-19.1,2.933-29.911-7.52-31.16-24.967-9.766,1-18.776-2.158-25.125-9.865L93.9,425.715l.084-.031c-.016.168-.051.332-.051.5a5,5,0,0,0,5,5H460.216a10,10,0,0,1,0,20h-147.5a17.5,17.5,0,1,0,0,35h112.5a5,5,0,0,0,0-10h-112.5a7.5,7.5,0,1,1,0-15h147.5a20,20,0,0,0,0-40Z" fill="#e3a837"/>
        <path id="Path_5981" data-name="Path 5981" d="M405.148,112.5A28.574,28.574,0,0,0,400.2,72.349L358.562,39.863A28.573,28.573,0,0,0,318.443,44.8l-15,19.2,87.232,67.016Z" fill="#e3a837"/>
        <path id="Path_5982" data-name="Path 5982" d="M439.783,307.938a20,20,0,1,0-20-20A20.024,20.024,0,0,0,439.783,307.938Z" fill="#e3a837"/>
        <circle id="Ellipse_54" data-name="Ellipse 54" cx="7.5" cy="7.5" r="7.5" transform="translate(64.783 57.938)" fill="#e3a837"/>
        <circle id="Ellipse_55" data-name="Ellipse 55" cx="7.5" cy="7.5" r="7.5" transform="translate(169.783 102.938)" fill="#e3a837"/>
        <circle id="Ellipse_56" data-name="Ellipse 56" cx="7.5" cy="7.5" r="7.5" transform="translate(424.783 187.938)" fill="#e3a837"/>
        <circle id="Ellipse_57" data-name="Ellipse 57" cx="7.5" cy="7.5" r="7.5" transform="translate(39.783 342.938)" fill="#e3a837"/>
        <circle id="Ellipse_58" data-name="Ellipse 58" cx="7.5" cy="7.5" r="7.5" transform="translate(299.783 317.938)" fill="#e3a837"/>
        <circle id="Ellipse_59" data-name="Ellipse 59" cx="7.5" cy="7.5" r="7.5" transform="translate(434.783 372.938)" fill="#e3a837"/>
        <circle id="Ellipse_60" data-name="Ellipse 60" cx="7.5" cy="7.5" r="7.5" transform="translate(149.783 462.938)" fill="#e3a837"/>
      </g>
    </g>
  </g>
</svg>
