<svg xmlns="http://www.w3.org/2000/svg" width="143" height="143" viewBox="0 0 143 143">
  <g id="Group_2" data-name="Group 2" transform="translate(-165.803 -578.519)">
    <g id="Group_1" data-name="Group 1">
      <g id="Path_5" data-name="Path 5">
        <path id="Path_16" data-name="Path 16" d="M258.028,614.205l4.454-1.053a2.586,2.586,0,0,0,1.789-3.15,2.615,2.615,0,0,0-3.15-1.788l-6.539,1.546a11.261,11.261,0,0,0-1.62-.63,19.281,19.281,0,0,0-6.457-.588c-5.2.234-10.411.656-15.565,1.363a74.137,74.137,0,0,0-8.514,1.642,2.561,2.561,0,1,0,1.361,4.938l.107-.026-1.225,17.178c-.292,0-.585,0-.877-.007a2.561,2.561,0,1,0-.1,5.121h.1a180.854,180.854,0,0,0,21.279-.907q2.628-.27,5.25-.615c1.059-.14,2.117-.284,3.174-.439a16.475,16.475,0,0,0,2.055-.371,6.537,6.537,0,0,0,2.55-1.338,4.568,4.568,0,0,0,1.468-3.1,15.178,15.178,0,0,0-.134-2.485q-.1-1.284-.142-2.568a69.766,69.766,0,0,1,.528-11.422C257.889,615.084,257.98,614.643,258.028,614.205Zm-5.839,13.222q.051,1.161.141,2.319c.042.541.125,1.1.137,1.643a9.823,9.823,0,0,1-1.589.352c-.83.126-1.661.242-2.493.355a180.631,180.631,0,0,1-20.6,1.533q.651-9.144,1.3-18.286,1.465-.258,2.941-.462c3.251-.428,6.52-.7,9.79-.925a47.05,47.05,0,0,1,8.324-.214,10.579,10.579,0,0,1,1.964.508,7.308,7.308,0,0,1,.7.381,72.854,72.854,0,0,0-.668,8.149Q252.088,625.1,252.189,627.427Zm.843-12.66.031.019c.048.039.1.078.141.119.025.022.045.048.07.071a1.537,1.537,0,0,1-.238-.209Z" fill="#674e1e"/>
      </g>
      <g id="Path_6" data-name="Path 6">
        <path id="Path_17" data-name="Path 17" d="M215.527,660.023a2.6,2.6,0,0,0-3.15,1.788Q209.521,674,207.328,686.34q-.618,3.475-1.182,6.961a2.68,2.68,0,0,0,.659,2.491,2.588,2.588,0,0,0,2.491.659,3.983,3.983,0,0,0,2.767-4.836,2.372,2.372,0,0,0-.347-.739q1.744-10.227,3.946-20.37,12.667-3.907,25.643-6.7c2.166-.465,4.344-.972,6.533-1.338a.445.445,0,0,1-.01.072l-.747,4.96q-.741,4.917-1.481,9.835l-.848,5.633a2.8,2.8,0,0,0,.258,1.973,2.562,2.562,0,0,0,3.5.918,2.476,2.476,0,0,0,1.176-1.53q1.38-9.164,2.759-18.326.189-1.262.38-2.522c.08-.531.121-1.1.236-1.634a3,3,0,0,0,.471-.6,2.533,2.533,0,0,0,.3-1.633A2.569,2.569,0,0,0,252,657.485c-2.731-.782-5.635.058-8.334.6q-3.733.753-7.446,1.6-7.425,1.694-14.759,3.76-2.265.637-4.517,1.314c.122-.529.242-1.06.366-1.589A2.6,2.6,0,0,0,215.527,660.023Z" fill="#674e1e"/>
      </g>
      <g id="Path_7" data-name="Path 7">
        <path id="Path_18" data-name="Path 18" d="M240.8,602.868c-.039.017.151.009.248-.04h0A.909.909,0,0,1,240.8,602.868Z" fill="#674e1e"/>
      </g>
      <g id="Path_8" data-name="Path 8">
        <path id="Path_19" data-name="Path 19" d="M266.96,603.595c.086.134.178.169.184.143-.05-.04-.115-.085-.163-.131Z" fill="#674e1e"/>
      </g>
      <g id="Path_9" data-name="Path 9">
        <path id="Path_20" data-name="Path 20" d="M238.7,648.425" fill="#674e1e"/>
      </g>
      <g id="Path_10" data-name="Path 10">
        <path id="Path_21" data-name="Path 21" d="M275.495,586.7c-1.1-.579-2.945-.4-3.5.919a94.065,94.065,0,0,0-3.87,10.874,23.7,23.7,0,0,0-6.187-1.256,72.487,72.487,0,0,0-9.375-.4,110.6,110.6,0,0,0-20.912,2.45,83.327,83.327,0,0,0-18.68,6.082,2.905,2.905,0,0,0-1.6,1.737c-.159.462-.26.953-.387,1.425q-.378,1.394-.747,2.792-.756,2.86-1.478,5.731-1.472,5.856-2.788,11.752c-1.724,7.743-3.243,15.541-4.367,23.4-.068.477-.129.952-.195,1.429a3.969,3.969,0,0,0-.164,2.554,2.552,2.552,0,0,0,5-.494l.253-.142.138-.048c.238-.079.481-.144.722-.214q.856-.249,1.715-.493,3.267-.93,6.558-1.774c4.432-1.135,8.9-2.147,13.393-3q3.4-.648,6.82-1.173.825-.127,1.651-.245l.708-.1.472-.065h.029c1.141-.149,2.282-.291,3.426-.418q3.431-.384,6.876-.619c2.08-.14,4.184-.308,6.27-.257q.713.016,1.425.079a6.572,6.572,0,0,0,.715.075c-.682.012-.009,0,.209.04a16.213,16.213,0,0,1,2.841.739l.247.093h.008c.191.088.382.174.569.272a10.385,10.385,0,0,1,1.174.7l.114.077.042.035c.131.109.255.226.38.342-.311.991-.563,2-.815,3.008-.9,3.589-1.7,7.2-2.506,10.812-1.027,4.578-2.044,9.158-3.093,13.731-.989,4.311-1.994,8.619-3.11,12.9-.435,1.669-.886,3.336-1.39,4.986q-.135.438-.274.876a16.883,16.883,0,0,0-5.117-.1c-3.549.333-7.092.73-10.629,1.17-5.872.732-11.732,1.576-17.564,2.582-6.462,1.115-12.9,2.416-19.247,4.064a105.542,105.542,0,0,0-17.545,5.989q-.9.411-1.783.855a2.576,2.576,0,0,0-.918,3.5,2.622,2.622,0,0,0,3.5.919q.855-.428,1.724-.829.447-.206.9-.4l.426-.186.123-.053c1.274-.52,2.553-1.025,3.849-1.49,2.849-1.023,5.746-1.913,8.664-2.719,6.175-1.7,12.45-3.045,18.751-4.194q4.529-.825,9.082-1.521,2.139-.327,4.282-.631,1-.141,2.006-.278l.353-.043h0l1.016-.134q5.873-.768,11.768-1.355,1.282-.128,2.565-.24c.128-.01.255-.022.383-.03.41-.024.823-.026,1.233-.01.217.008.432.028.648.046a.425.425,0,0,1,.1.014c.159.036.318.066.476.109.046.013.092.029.137.046a2.407,2.407,0,0,0,1.774,1.134,2.546,2.546,0,0,0,2.551-1.223,37.622,37.622,0,0,0,2.631-7.781c1.1-4.054,2.067-8.143,3.016-12.233,1.057-4.55,2.074-9.11,3.1-13.668.86-3.84,1.71-7.682,2.627-11.509.306-1.279.617-2.555.968-3.822.114-.411.232-.825.367-1.23l.009-.025c.049-.069.1-.136.145-.214a2.53,2.53,0,0,0,0-2.584c-2.559-3.656-6.656-5.2-10.947-5.689a36.82,36.82,0,0,0-6.212,0q-3.684.2-7.355.577a200.435,200.435,0,0,0-29.288,5.327q-3.671.938-7.309,1.991.258-1.628.534-3.253.806-4.7,1.759-9.384c1.281-6.328,2.73-12.621,4.3-18.882q1.125-4.482,2.341-8.941c.464-.216.929-.427,1.4-.631l.228-.1c.429-.185-.134.039-.151.063.075-.107.413-.171.544-.224q.632-.256,1.269-.5c1.688-.648,3.4-1.23,5.131-1.761a102.2,102.2,0,0,1,11.25-2.734q1.435-.267,2.879-.5.673-.108,1.35-.207.386-.057.772-.111c.034,0,.082-.008.133-.012a.847.847,0,0,1,.152-.028l.094-.012h0c1.918-.247,3.841-.451,5.77-.6a88.628,88.628,0,0,1,11.22-.189q1.452.075,2.9.21.7.067,1.4.15c.214.026.43.066.646.081-.812-.057.006,0,.193.031a16.277,16.277,0,0,1,2.951.657,1.447,1.447,0,0,0,.229.089l.065.031c.184.092.357.2.534.306a.506.506,0,0,1-.032-.052.215.215,0,0,0,.052.064l.05.03c.088.049.116.086.113.1l.04.033c-.008-.008.081.076.152.148.032.048.067.1.1.145a2.577,2.577,0,0,0,2.551,1.223,2.543,2.543,0,0,0,2.129-1.834q.834-3.5,1.949-6.918.549-1.68,1.168-3.337.309-.828.635-1.65.174-.438.353-.875c.034-.084.4-.963.2-.476A2.634,2.634,0,0,0,275.495,586.7Zm-69.571,69.192.018-.015c-.256.35-.127.106-.019.015Zm.078-.068.009-.008c-.026.064-.025.049-.01.008Zm.319-.212.083-.03a.257.257,0,0,1-.084.03Zm44.467,45.079c-.018-.064-.059-.182-.146-.4a4.344,4.344,0,0,0,.242.5.582.582,0,0,0-.1-.1Zm16.6-96.714c.023.025.037.043.035.048Z" fill="#674e1e"/>
      </g>
      <g id="Path_11" data-name="Path 11">
        <path id="Path_22" data-name="Path 22" d="M238.7,648.426" fill="#674e1e"/>
      </g>
    </g>
    <g id="Ellipse_3" data-name="Ellipse 3">
      <g id="Group_4" data-name="Group 4">
        <path id="Path_23" data-name="Path 23" d="M237.3,721.519a71.5,71.5,0,1,1,71.5-71.5A71.581,71.581,0,0,1,237.3,721.519Zm0-138a66.5,66.5,0,1,0,66.5,66.5A66.575,66.575,0,0,0,237.3,583.519Z" fill="#674e1e"/>
      </g>
    </g>
  </g>
</svg>
